<mxfile host="app.diagrams.net" modified="2023-08-22T14:43:28.923Z" agent="Mozilla/5.0 (Macintosh; Intel Mac OS X 10_15_7) AppleWebKit/537.36 (KHTML, like Gecko) Chrome/116.0.0.0 Safari/537.36" version="21.6.8" etag="mwEHejoxou7qZys767w1" type="github">
  <diagram name="Page-1" id="A-HLvl9E2xmgO6LIkuAe">
    <mxGraphModel>
      <root>
        <mxCell id="0" />
        <mxCell id="1" parent="0" />
      </root>
    </mxGraphModel>
  </diagram>
</mxfile>
